<svg xmlns="http://www.w3.org/2000/svg" version="1.2" viewBox="0.5 0.4 410 77.3"><defs><clipPath clipPathUnits="userSpaceOnUse" id="cp1"><path d="m-37-56h1456v180h-1456z"></path></clipPath></defs><style>.a{fill:#8a1005}</style><g clip-path="url(#cp1)"><path fill-rule="evenodd" class="a" d="m2.2 31h4.1v-9.9c0-1 0-2 0.2-2.9 0.8-3.1 3-5.7 6.2-5.7 3.2 0 3.7 2.6 3.7 5.5v13h4v-9.9q0-1.7 0.3-3c0.8-3 3-5.6 6-5.6 3.2 0 3.8 2.4 3.8 5.5v13h4.1v-13.9c0-5.6-2.2-8.4-7-8.4-3.5 0-6.4 2.3-7.6 5h-0.1c-0.7-3.3-2.8-5-6.4-5-3.3 0-6.3 2.5-7.3 5h-0.1c0 0 0.1-0.7 0.1-1.6v-2.9h-4zm36.3-6.1c0 4.4 3.6 6.7 7.2 6.7 5.1 0 6.8-4.3 6.8-4.3h0.1c0 0-0.1 0.7-0.1 1.7v2h3.8v-13.7c0-5.5-3-8.5-8.4-8.5-4.9 0-8 2.5-8 2.5l1.7 3.1c0 0 2.7-2.1 6-2.1 2.7 0 4.7 1.2 4.7 4.8v0.4h-1c-3.6 0-12.8 0.3-12.8 7.4zm4.1-0.2c0-3.9 5.6-4.1 8.6-4.1h1.1v0.7c0 3.2-2.2 6.9-5.7 6.9-2.6 0-4-1.7-4-3.5zm19.6 6.3h4.1v-10.2h3.1l6.4 10.2h4.7l-7.8-12v-0.1l7-9.6h-4.6l-5.8 8h-3v-16.6h-4.1zm19.5-10.9c0 6.5 4.6 11.4 11.3 11.4 5.1 0 8.3-3.1 8.3-3.1l-1.7-3c0 0-2.7 2.5-6.3 2.5-3.8 0-7.1-2.4-7.4-7.2h15.6c0 0 0.1-1.2 0.1-1.8 0-5.6-3.2-10.2-9.2-10.2-6.1 0-10.7 4.5-10.7 11.4zm4.4-2.5c0.6-3.6 3.1-5.6 6.2-5.6 2.7 0 5 1.8 5.1 5.6zm31.2 13.4h4.1v-10.2c0-1.1 0.1-2.1 0.3-2.9 0.9-3.2 3.5-5.4 6.7-5.4 3.5 0 4.1 2.4 4.1 5.5v13h4.1v-13.9c0-5.6-2.3-8.4-7.4-8.4-4.6 0-7.1 3.1-8 5 0 0 0-0.7 0-1.6v-2.9h-3.9zm23.5-10.9c0 6.5 4.6 11.4 11.3 11.4 5.1 0 8.3-3.1 8.3-3.1l-1.7-3c0 0-2.7 2.5-6.3 2.5-3.8 0-7.2-2.4-7.4-7.2h15.6c0 0 0.1-1.2 0.1-1.8 0-5.6-3.2-10.1-9.2-10.1-6.1 0-10.7 4.4-10.7 11.3zm4.3-2.5c0.6-3.6 3.2-5.5 6.3-5.5 2.7 0 5 1.8 5.1 5.5zm24.5 13.4h4.6l4.4-13.9c0.3-1.2 0.6-2.4 0.6-2.4 0 0 0.3 1.2 0.6 2.4l4.5 13.9h4.5l6.8-21.7h-4.3l-4.4 15.2c-0.4 1.2-0.5 2.4-0.5 2.4h-0.1c0 0-0.3-1.2-0.6-2.4l-4.6-15.2h-3.7l-4.7 15.2c-0.3 1.2-0.5 2.4-0.5 2.4h-0.1c-0.1 0-0.2-1.2-0.6-2.4l-4.4-15.2h-4.3zm40.7 0h4.1v-18.1h5v-3.4h-5v-0.9c0-4.1 2.9-4.6 4.4-4.6 0.7 0 1.1 0.1 1.1 0.1v-3.6c0 0-0.6-0.1-1.6-0.1-2.7 0-8 0.9-8 8.1v1h-2.6v3.4h2.6zm12.9 0h4.1v-8.9c0-1.4 0.1-2.7 0.5-3.9 1-3.3 3.4-5.2 6-5.2 0.6 0 1.1 0.2 1.1 0.2v-4.2c0 0-0.5-0.1-1-0.1-3.3 0-5.8 2.5-6.7 5.7h-0.1c0 0 0.1-0.7 0.1-1.6v-3.8h-4zm14.9-26.1h4.2v-4.3h-4.2zm0.1 26.1h4.1v-21.7h-4.1zm8.5-10.9c0 6.5 4.6 11.4 11.3 11.4 5.1 0 8.3-3.1 8.3-3.1l-1.7-3c0 0-2.7 2.5-6.3 2.5-3.8 0-7.2-2.4-7.4-7.2h15.6c0 0 0.1-1.2 0.1-1.8 0-5.6-3.2-10.2-9.2-10.2-6.1 0-10.7 4.5-10.7 11.4zm4.4-2.5c0.5-3.6 3.1-5.6 6.2-5.6 2.7 0 5 1.8 5.1 5.6zm20.2 13.4h4.1v-10.2c0-1.1 0-2.1 0.3-2.9 0.9-3.2 3.5-5.4 6.7-5.4 3.4 0 4.1 2.5 4.1 5.5v13h4.1v-13.9c0-5.6-2.4-8.4-7.4-8.4-4.6 0-7.1 3.1-8 5h-0.1c0 0 0.1-0.7 0.1-1.6v-2.9h-3.9zm23.6-10.8c0 6.7 3.6 11.3 9.4 11.3 5.2 0 7-4 7-4h0.1c0 0-0.1 0.6-0.1 1.5v2h3.9v-30.3h-4.1v10c0 0.9 0.1 1.5 0.1 1.5h-0.1c0 0-1.6-3.4-6.6-3.4-5.6 0-9.6 4.4-9.6 11.4zm4.1 0c0-5 2.8-7.8 6.2-7.8 4 0 6 3.8 6 7.7 0 5.6-3 7.8-6.1 7.8-3.6 0-6.1-3-6.1-7.7zm20.5 8.2c0 0 2.9 3.1 8.1 3.1 4.7 0 7.7-2.7 7.7-6.3 0-7.1-10.9-6.2-10.9-10.2 0-1.9 1.7-2.6 3.5-2.6 3.4 0 5.3 1.9 5.3 1.9l1.6-3.1c0 0-2.2-2.4-6.9-2.4-4.2 0-7.7 2.2-7.7 6.2 0 7 11 6.2 11 10.2 0 1.8-1.8 2.7-3.6 2.7-3.7 0-6.1-2.5-6.1-2.5zm17.7 7h3.2l3.6-8.8h-4.2zm-336.7 35.5c0 4.3 3.6 6.6 7.3 6.6 5.1 0 6.8-4.3 6.8-4.3h0.1c0 0-0.1 0.8-0.1 1.7v2.1h3.8v-13.8c0-5.5-3-8.5-8.4-8.5-4.9 0-8 2.6-8 2.6l1.7 3.1c0 0 2.6-2.1 5.9-2.1 2.7 0 4.7 1.2 4.7 4.7v0.4h-0.9c-3.6 0-12.9 0.3-12.9 7.5zm4.2-0.2c0-3.9 5.5-4.1 8.6-4.1h1.1v0.6c0 3.3-2.3 7-5.7 7-2.7 0-4-1.7-4-3.5zm19.6 6.3h4v-10.2c0-1.1 0.1-2 0.4-2.9 0.9-3.1 3.5-5.3 6.7-5.3 3.4 0 4.1 2.4 4.1 5.4v13h4.1v-13.9c0-5.6-2.4-8.4-7.4-8.4-4.6 0-7.1 3.1-8 5h-0.1c0 0 0.1-0.7 0.1-1.6v-2.8h-3.9zm23.6-10.9c0 6.7 3.6 11.4 9.4 11.4 5.2 0 7-4.1 7-4.1 0 0 0 0.6 0 1.5v2.1h3.9v-30.4h-4.1v10.1c0 0.8 0.1 1.4 0.1 1.4h-0.1c0 0-1.6-3.4-6.6-3.4-5.6 0-9.6 4.4-9.6 11.4zm4.1 0c0-5 2.8-7.8 6.2-7.8 4 0 6 3.9 6 7.7 0 5.6-3 7.9-6.1 7.9-3.6 0-6.1-3.1-6.1-7.8zm32.3 10.9h3.8v-1.6c0-1 0-1.7 0-1.7 0 0 2 3.8 6.7 3.8 5.6 0 9.7-4.5 9.7-11.4 0-6.8-3.6-11.4-9.3-11.4-5 0-6.9 3.7-6.9 3.7 0 0 0-0.8 0-1.9v-9.9h-4zm3.9-10.8c0-5.5 3-7.8 6.2-7.8 3.5 0 6 3 6 7.8 0 4.9-2.8 7.7-6.2 7.7-4 0-6-3.8-6-7.7zm20.8 3c0 5.7 2.5 8.3 7.3 8.3 4.1 0 6.9-2.8 7.8-5h0.1c0 0-0.1 0.7-0.1 1.6v2.9h4v-21.8h-4.1v10.2c0 4.3-2.6 8.2-6.9 8.2-3.5 0-4-2.4-4-5.4v-13h-4.1zm25.2-18.2h4.1v-4.3h-4.1zm0.1 26.1h4v-21.8h-4zm9.7-5.9c0 5.5 3.4 6.1 5.7 6.1 0.8 0 1.4-0.1 1.4-0.1v-3.7c0 0-0.4 0.1-0.7 0.1-1.3 0-2.3-0.5-2.3-3.1v-23.7h-4.1zm9.9-5c0 6.8 3.6 11.4 9.4 11.4 5.2 0 7-4 7-4 0 0 0 0.6 0 1.5v2h3.9v-30.3h-4.1v10c0 0.8 0.1 1.5 0.1 1.5h-0.1c0 0-1.6-3.5-6.6-3.5-5.6 0-9.6 4.5-9.6 11.4zm4.1 0c0-4.9 2.8-7.7 6.2-7.7 4 0 6 3.8 6 7.7 0 5.5-3 7.8-6.1 7.8-3.6 0-6.1-3-6.1-7.8zm30.7 0c0 6.6 4.8 11.4 11.5 11.4 5.5 0 8.5-3.4 8.5-3.4l-1.7-3.1c0 0-2.6 2.9-6.5 2.9-4.5 0-7.6-3.4-7.6-7.8 0-4.5 3.1-7.7 7.4-7.7 3.7 0 5.9 2.5 5.9 2.5l2-3c0 0-2.7-3.2-8-3.2-6.7 0-11.5 5-11.5 11.4zm22 0c0 6.6 5.1 11.4 11.5 11.4 6.4 0 11.5-4.8 11.5-11.4 0-6.6-5.1-11.4-11.5-11.4-6.4 0-11.5 4.8-11.5 11.4zm4.2 0c0-4.5 3.3-7.7 7.3-7.7 4.1 0 7.3 3.2 7.3 7.7 0 4.6-3.2 7.8-7.3 7.8-4 0-7.3-3.2-7.3-7.8zm23.4 10.9h4v-10.2c0-1 0.1-2 0.4-2.9 0.9-3.1 3.5-5.3 6.7-5.3 3.4 0 4.1 2.4 4.1 5.4v13h4.1v-13.9c0-5.6-2.4-8.4-7.4-8.4-4.6 0-7.1 3.1-8 5h-0.1c0 0 0.1-0.7 0.1-1.6v-2.8h-3.9zm39.1 0h4.1v-21.8h-13.1v-0.6c0-4.1 3-4.6 4.5-4.6 0.6 0 1.1 0.1 1.1 0.1v-3.6c0 0-0.7-0.1-1.6-0.1-2.7 0-8 0.9-8 8.1v0.7h-2.7v3.4h2.7v18.4h4v-18.4h9zm0-26.1h4.1v-4.3h-4.1zm8.5 15.2c0 6.8 3.6 11.4 9.4 11.4 5.2 0 7-4 7-4 0 0 0 0.6 0 1.4v2.1h3.9v-30.4h-4.1v10.1c0 0.8 0.1 1.5 0.1 1.5h-0.1c0 0-1.6-3.5-6.6-3.5-5.6 0-9.6 4.5-9.6 11.4zm4.1 0c0-4.9 2.8-7.8 6.2-7.8 4 0 6 3.9 6 7.8 0 5.5-3 7.8-6.1 7.8-3.6 0-6.1-3-6.1-7.8zm20.8 0c0 6.5 4.6 11.4 11.3 11.4 5.1 0 8.2-3.1 8.2-3.1l-1.6-3c0 0-2.7 2.5-6.4 2.5-3.8 0-7.1-2.4-7.3-7.2h15.5c0 0 0.2-1.2 0.2-1.8 0-5.6-3.2-10.2-9.3-10.2-6 0-10.6 4.5-10.6 11.4zm4.3-2.5c0.6-3.6 3.1-5.6 6.3-5.6 2.7 0 5 1.8 5.1 5.6zm20.1 13.4h4.1v-10.2c0-1.1 0.1-2.1 0.4-2.9 0.8-3.2 3.5-5.3 6.7-5.3 3.4 0 4.1 2.4 4.1 5.4v13h4v-13.9c0-5.6-2.3-8.4-7.3-8.4-4.6 0-7.2 3.1-8 5h-0.1c0 0 0.1-0.7 0.1-1.6v-2.9h-4zm23.5-10.8c0 6.5 4.7 11.4 11.4 11.4 5.6 0 8.6-3.5 8.6-3.5l-1.7-3.1c0 0-2.6 2.9-6.6 2.9-4.4 0-7.5-3.3-7.5-7.8 0-4.4 3.1-7.7 7.4-7.7 3.6 0 5.9 2.5 5.9 2.5l1.9-2.9c0 0-2.6-3.2-8-3.2-6.7 0-11.4 4.9-11.4 11.4zm23.1 0c0 6.4 4.6 11.4 11.3 11.4 5.1 0 8.2-3.1 8.2-3.1l-1.7-3.1c0 0-2.6 2.5-6.3 2.5-3.8 0-7.1-2.4-7.3-7.1h15.5c0 0 0.2-1.3 0.2-1.8 0-5.7-3.2-10.2-9.3-10.2-6 0-10.6 4.4-10.6 11.4zm4.3-2.6c0.6-3.5 3.1-5.5 6.2-5.5 2.8 0 5.1 1.8 5.2 5.5zm20.1 13.4h4.3v-4.4h-4.3z"></path></g></svg>