<svg xmlns="http://www.w3.org/2000/svg" version="1.2" viewBox="33.3 283.1 370.1 95.2"><defs><clipPath clipPathUnits="userSpaceOnUse" id="cp1"><path d="m0 241h1456v180h-1456z"></path></clipPath></defs><style>.a{fill:#8a1005}</style><g clip-path="url(#cp1)"><path fill-rule="evenodd" class="a" d="m35.5 317h20.1v-4.1h-15.4v-10.9h11.9v-4.2h-11.9v-10.6h14.6v-4.1h-19.3zm34.5-9.4c0 0 0.4 0.7 0.7 1.3l5 8.1h5.2l-8.1-12.5 7.6-11.8h-5.2l-4.4 7.4c-0.4 0.6-0.8 1.5-0.8 1.5h-0.1c0 0-0.4-0.9-0.8-1.5l-4.4-7.4h-5.2l7.6 11.8-8.1 12.5h5.2l5-8.1c0.3-0.6 0.7-1.3 0.7-1.3zm14.6 19h4.5v-10.9c0-1.2-0.1-2.1-0.1-2.1h0.1c0 0 2.1 4 7.3 4 6.2 0 10.8-5 10.8-12.7 0-7.6-4-12.8-10.4-12.8-6 0-8 4.5-8 4.5h-0.1c0 0 0.1-0.9 0.1-1.8v-2.1h-4.2zm4.4-21.6c0-6.2 3.3-8.8 6.9-8.8 3.9 0 6.7 3.4 6.7 8.7 0 5.5-3.1 8.7-6.9 8.7-4.3 0-6.7-4.3-6.7-8.6zm21.9-0.1c0 7.2 5.2 12.7 12.6 12.7 5.7 0 9.3-3.5 9.3-3.5l-1.9-3.4c0 0-3 2.9-7.1 2.9-4.2 0-7.9-2.7-8.2-8h17.4c0 0 0.1-1.4 0.1-2.1 0-6.3-3.5-11.3-10.3-11.3-6.7 0-11.9 5-11.9 12.7zm4.9-2.9c0.6-3.9 3.5-6.1 6.9-6.1 3.1 0 5.6 2 5.8 6.1zm21.8 15h4.5v-9.9c0-1.5 0.2-3 0.6-4.4 1.1-3.6 3.8-5.7 6.7-5.7 0.7 0 1.3 0.2 1.3 0.2v-4.7c0 0-0.6-0.1-1.2-0.1-3.6 0-6.4 2.8-7.5 6.4h-0.1c0 0 0.1-0.8 0.1-1.8v-4.3h-4.4zm16.9-29.1h4.6v-4.8h-4.6zm0.1 29.2h4.5v-24.3h-4.5zm10.3-12.1c0 7.2 5.2 12.7 12.6 12.7 5.7 0 9.3-3.5 9.3-3.5l-1.9-3.4c0 0-3 2.8-7.1 2.8-4.2 0-7.9-2.6-8.2-8h17.4c0 0 0.1-1.4 0.1-2 0-6.3-3.5-11.4-10.3-11.4-6.7 0-11.9 5-11.9 12.8zm4.9-2.9c0.6-4 3.5-6.2 6.9-6.2 3.1 0 5.6 2 5.8 6.2zm21.8 15h4.5v-11.4c0-1.2 0.1-2.3 0.4-3.2 1-3.5 3.9-6 7.5-6 3.9 0 4.6 2.7 4.6 6.1v14.5h4.5v-15.6c0-6.1-2.6-9.3-8.2-9.3-5.1 0-8 3.5-8.9 5.6h-0.1c0 0 0.1-0.8 0.1-1.8v-3.2h-4.4zm26.3-12.1c0 7.3 5.3 12.7 12.7 12.7 6.2 0 9.5-3.9 9.5-3.9l-1.8-3.4c0 0-2.9 3.3-7.3 3.3-5 0-8.5-3.8-8.5-8.8 0-5 3.5-8.6 8.3-8.6 4.1 0 6.6 2.8 6.6 2.8l2.2-3.3c0 0-3-3.6-9-3.6-7.4 0-12.7 5.6-12.7 12.8zm25 0c0 7.2 5.2 12.7 12.6 12.7 5.7 0 9.3-3.5 9.3-3.5l-1.9-3.4c0 0-3 2.9-7.1 2.9-4.2 0-7.9-2.7-8.2-8.1h17.4c0 0 0.1-1.4 0.1-2 0-6.3-3.5-11.4-10.3-11.4-6.7 0-11.9 5-11.9 12.8zm4.9-2.9c0.6-4 3.5-6.2 6.9-6.2 3.1 0 5.6 2.1 5.8 6.2zm34.8 15h4.3v-1.8c0-1-0.1-1.8-0.1-1.8h0.1c0 0 2.2 4.2 7.5 4.2 6.2 0 10.8-5 10.8-12.7 0-7.6-4-12.8-10.4-12.8-5.6 0-7.7 4.2-7.7 4.2 0 0 0-0.9 0-2.1v-11.1h-4.5zm4.4-12c0-6.2 3.3-8.8 6.9-8.8 3.9 0 6.7 3.4 6.7 8.7 0 5.5-3.1 8.7-6.9 8.7-4.5 0-6.7-4.3-6.7-8.6zm20.9-0.1c0 7.2 5.2 12.7 12.6 12.7 5.7 0 9.3-3.5 9.3-3.5l-1.9-3.4c0 0-3 2.9-7.1 2.9-4.2 0-7.9-2.7-8.2-8.1h17.4c0 0 0.1-1.3 0.1-2 0-6.3-3.5-11.3-10.3-11.3-6.7 0-11.9 4.9-11.9 12.7zm4.9-2.9c0.6-3.9 3.5-6.1 6.9-6.1 3.1 0 5.6 2 5.8 6.1zm22.7-14.1h4.6v-4.8h-4.6zm0.1 29.2h4.5v-24.3h-4.5zm11 0h4.5v-11.4c0-1.2 0.1-2.3 0.4-3.3 1-3.5 3.9-5.9 7.5-5.9 3.9 0 4.6 2.7 4.6 6.1v14.5h4.5v-15.6c0-6.2-2.6-9.3-8.2-9.3-5.1 0-8 3.5-8.9 5.6h-0.1c0 0 0.1-0.8 0.1-1.8v-3.2h-4.4zm30.1 4.4l-1.5 3.7c2.3 1.2 5.3 2 8.1 2 6.1 0 12-3.1 12-11.1v-23.3h-4.3v2.3c0 0.4 0 0.7 0 0.7h-0.1c0 0-1.7-3.6-7.5-3.6-6.6 0-10.4 5.2-10.4 12.2 0 7 4 12.4 10.7 12.4 3.4 0 5.6-1.4 7-3.8h0.1c0 0 0 0.8 0 1.5v1.8c0 5-3.4 6.8-7.6 6.8-3.5 0-6.5-1.6-6.5-1.6zm7.9-8.7c-4.3 0-7-3.5-7-8.5 0-5 2.4-8 6.5-8 3.7 0 6.8 1.8 6.8 8.1 0 6.4-3.1 8.4-6.3 8.4zm-351.3 38.3c0 10.4 7.4 17.6 16.3 17.6 6.6 0 10.2-4.2 10.2-4.2h0.1c0 0 0 0.8 0 1.5v2.1h4.1v-17h-9.7v4.1h5.5v4.9c0 0-3.7 4.2-9.5 4.2-6.9 0-12.2-5.4-12.2-13.3 0-7.2 4.7-13.1 12.5-13.1 5.7 0 9.4 3.4 9.4 3.4l2.3-3.6c0 0-4.1-4.1-12.1-4.1-9.6 0-16.9 7.7-16.9 17.5zm36.3 17h4.5v-9.9c0-1.5 0.2-3 0.6-4.4 1.1-3.6 3.8-5.7 6.7-5.7 0.7 0 1.3 0.1 1.3 0.1v-4.6c0 0-0.6-0.1-1.2-0.1-3.6 0-6.4 2.8-7.5 6.4h-0.1c0 0 0.1-0.9 0.1-1.9v-4.2h-4.4zm15.3-12.1c0 7.2 5.2 12.7 12.6 12.7 5.7 0 9.3-3.5 9.3-3.5l-1.9-3.4c0 0-3 2.8-7.1 2.8-4.2 0-7.9-2.6-8.2-8h17.4c0 0 0.1-1.4 0.1-2 0-6.3-3.5-11.4-10.3-11.4-6.7 0-11.9 5-11.9 12.8zm4.9-2.9c0.6-4 3.5-6.2 6.9-6.2 3.1 0 5.6 2.1 5.8 6.2zm20.9 8.2c0 4.8 4 7.4 8 7.4 5.7 0 7.7-4.8 7.7-4.8h0.1c0 0-0.1 0.8-0.1 1.9v2.3h4.2v-15.4c0-6.1-3.4-9.5-9.4-9.5-5.5 0-8.9 2.9-8.9 2.9l1.9 3.4c0 0 2.9-2.3 6.6-2.3 3 0 5.2 1.3 5.2 5.3v0.4h-1c-4 0-14.3 0.4-14.3 8.4zm4.6-0.3c0-4.3 6.2-4.6 9.6-4.6h1.2v0.8c0 3.6-2.5 7.7-6.4 7.7-2.9 0-4.4-1.9-4.4-3.9zm22.3-1.8c0 8.1 6 9.1 9.1 9.1 0.9 0 1.6-0.1 1.6-0.1v-4.1c0 0-0.4 0.1-1.1 0.1-1.7 0-5.1-0.7-5.1-5.5v-10.8h5.8v-3.7h-5.8v-7.1h-4.4v7.1h-3.2v3.7h3.1zm14.3-3.3c0 7.2 5.2 12.8 12.6 12.8 5.7 0 9.3-3.5 9.3-3.5l-1.9-3.4c0 0-3 2.8-7.1 2.8-4.2 0-7.9-2.7-8.2-8h17.4c0 0 0.1-1.4 0.1-2 0-6.3-3.5-11.4-10.3-11.4-6.7 0-11.9 5-11.9 12.7zm4.9-2.8c0.6-4 3.5-6.2 6.9-6.2 3.1 0 5.6 2 5.8 6.2zm21.8 15h4.5v-10c0-1.4 0.2-2.9 0.6-4.3 1.1-3.6 3.8-5.7 6.7-5.7 0.7 0 1.3 0.1 1.3 0.1v-4.6c0 0-0.6-0.1-1.2-0.1-3.6 0-6.4 2.8-7.5 6.3h-0.1c0 0 0.1-0.8 0.1-1.8v-4.2h-4.4zm37 0h4.7v-29.8h11.4v-4.1h-27.5v4.1h11.4zm13.2-12.2c0 7.4 5.8 12.8 12.9 12.8 7.1 0 12.8-5.4 12.8-12.8 0-7.3-5.7-12.6-12.8-12.6-7.1 0-12.9 5.3-12.9 12.6zm4.7 0c0-5 3.7-8.6 8.2-8.6 4.5 0 8.2 3.6 8.2 8.6 0 5.1-3.7 8.8-8.2 8.8-4.5 0-8.2-3.7-8.2-8.8zm28.2 16.6l-1.5 3.7c2.3 1.2 5.3 2 8.1 2 6.1 0 12-3.1 12-11.1v-23.3h-4.3v2.3c0 0.4 0 0.8 0 0.8h-0.1c0 0-1.7-3.6-7.5-3.6-6.6 0-10.4 5.1-10.4 12.1 0 7 4 12.4 10.7 12.4 3.4 0 5.6-1.4 7-3.8h0.1c0 0 0 0.8 0 1.6v1.8c0 4.9-3.4 6.8-7.6 6.8-3.5 0-6.5-1.7-6.5-1.7zm7.9-8.7c-4.3 0-7-3.4-7-8.5 0-4.9 2.4-8 6.5-8 3.8 0 6.8 1.8 6.8 8.2 0 6.3-3 8.3-6.3 8.3zm16.3-7.8c0 7.2 5.2 12.7 12.6 12.7 5.7 0 9.3-3.5 9.3-3.5l-1.9-3.4c0 0-3 2.9-7.1 2.9-4.2 0-7.9-2.7-8.2-8h17.4c0 0 0.1-1.4 0.1-2.1 0-6.2-3.5-11.3-10.3-11.3-6.7 0-11.9 5-11.9 12.7zm4.9-2.8c0.6-4 3.5-6.2 6.9-6.2 3.1 0 5.6 2 5.8 6.2zm22.8 6c0 8.2 6 9.1 9.1 9.1 0.9 0 1.6-0.1 1.6-0.1v-4.1c0 0-0.4 0.1-1.1 0.1-1.7 0-5.1-0.6-5.1-5.5v-10.8h5.8v-3.7h-5.8v-7h-4.4v7h-3.2v3.7h3.1zm16 8.9h4.5v-11.4c0-1.1 0.1-2.2 0.4-3.2 1-3.5 4-6 7.6-6 3.8 0 4.5 2.7 4.5 6.1v14.5h4.5v-15.6c0-6.1-2.6-9.3-8.2-9.3-4.7 0-7.7 3.1-8.8 5.5 0 0 0-0.9 0-2.1v-12.4h-4.5zm25.3-12.1c0 7.2 5.2 12.7 12.6 12.7 5.7 0 9.3-3.5 9.3-3.5l-1.9-3.4c0 0-3 2.9-7.1 2.9-4.2 0-7.9-2.7-8.2-8.1h17.4c0 0 0.1-1.4 0.1-2 0-6.3-3.5-11.4-10.3-11.4-6.7 0-11.9 5-11.9 12.8zm4.9-2.9c0.6-3.9 3.5-6.2 6.9-6.2 3.1 0 5.6 2.1 5.8 6.2zm22.8 15h4.6v-9.9c0-1.5 0.1-3 0.5-4.4 1.1-3.6 3.8-5.7 6.7-5.7 0.7 0 1.3 0.1 1.3 0.1v-4.6c0 0-0.6-0.1-1.2-0.1-3.6 0-6.4 2.8-7.5 6.4h-0.1c0 0 0.1-0.8 0.1-1.9v-4.2h-4.4zm16 0h4.8v-4.9h-4.8z"></path></g></svg>